# xmcd
#
# Track frame offsets:
#       150
#       24115
#       40887
#       61122
#       73595
#       91637
#       108645
#       123977
#       138475
#       153180
#       173232
#
# Disc length: 2547 seconds
#
# Revision: 2
# Processed by: cddbd v1.4PL0 Copyright (c) Steve Scherf et al.
# Submitted via: MusiCat 1.1b1
#
DISCID=8409f10b
DTITLE=Rita Macneil - Flying on Your Own
DYEAR=1900
DGENRE=
TTITLE0=Flying on Your Own
TTITLE1=Neon City
TTITLE2=She's Called Nova Scotia
TTITLE3=Baby Baby
TTITLE4=Leave Her Memory
TTITLE5=Fast Train to Tokyo
TTITLE6=Everybody
TTITLE7=Used to You
TTITLE8=Loser (when it Comes to Love)
TTITLE9=Realized Your Dreams
TTITLE10=I Believe in You
EXTD=0\n\n\n
EXTT0=
EXTT1=
EXTT2=
EXTT3=
EXTT4=
EXTT5=
EXTT6=
EXTT7=
EXTT8=
EXTT9=
EXTT10=
PLAYORDER=
